<svg width="16" height="16" viewBox="0 0 16 16" fill="none" xmlns="http://www.w3.org/2000/svg">
<path d="M8.00016 14.6667C4.31816 14.6667 1.3335 11.682 1.3335 8C1.3335 4.318 4.31816 1.33334 8.00016 1.33334C11.6822 1.33334 14.6668 4.318 14.6668 8C14.6668 11.682 11.6822 14.6667 8.00016 14.6667ZM8.00016 13.3333C9.41465 13.3333 10.7712 12.7714 11.7714 11.7712C12.7716 10.771 13.3335 9.41449 13.3335 8C13.3335 6.58551 12.7716 5.22896 11.7714 4.22877C10.7712 3.22857 9.41465 2.66667 8.00016 2.66667C6.58567 2.66667 5.22912 3.22857 4.22893 4.22877C3.22873 5.22896 2.66683 6.58551 2.66683 8C2.66683 9.41449 3.22873 10.771 4.22893 11.7712C5.22912 12.7714 6.58567 13.3333 8.00016 13.3333ZM5.66683 9.33334H9.3335C9.4219 9.33334 9.50669 9.29822 9.5692 9.2357C9.63171 9.17319 9.66683 9.08841 9.66683 9C9.66683 8.9116 9.63171 8.82681 9.5692 8.7643C9.50669 8.70179 9.4219 8.66667 9.3335 8.66667H6.66683C6.2248 8.66667 5.80088 8.49107 5.48832 8.17851C5.17576 7.86595 5.00016 7.44203 5.00016 7C5.00016 6.55797 5.17576 6.13405 5.48832 5.82149C5.80088 5.50893 6.2248 5.33334 6.66683 5.33334H7.3335V4H8.66683V5.33334H10.3335V6.66667H6.66683C6.57842 6.66667 6.49364 6.70179 6.43113 6.7643C6.36862 6.82681 6.3335 6.9116 6.3335 7C6.3335 7.08841 6.36862 7.17319 6.43113 7.2357C6.49364 7.29822 6.57842 7.33334 6.66683 7.33334H9.3335C9.77552 7.33334 10.1994 7.50893 10.512 7.82149C10.8246 8.13405 11.0002 8.55797 11.0002 9C11.0002 9.44203 10.8246 9.86595 10.512 10.1785C10.1994 10.4911 9.77552 10.6667 9.3335 10.6667H8.66683V12H7.3335V10.6667H5.66683V9.33334Z" fill="#BDC2D1"/>
</svg>
