<svg width="16" height="16" viewBox="0 0 16 16" fill="none" xmlns="http://www.w3.org/2000/svg">
<path d="M11.2548 8.35356L14.6726 11.7713L14.437 12.0069L11.0199 8.58915L10.6664 8.23553L10.3128 8.58912L8.71012 10.1918L8.50994 10.392L8.5786 10.6666L8.69858 11.1465L8.30913 11.5357L3.83091 7.05746L4.22037 6.66828L4.69927 6.78779L4.97379 6.8563L5.17387 6.65625L9.36987 2.46092L9.58834 2.24248L9.49073 1.94936L9.35296 1.53567L9.7238 1.16457L14.2022 5.64292L13.8312 6.01439L13.4181 5.87642L13.125 5.77854L12.9063 5.9969L11.255 7.64624L10.901 7.99979L11.2548 8.35356Z" stroke="#BDC2D1"/>
<path d="M5.45947 6.54063L6.16658 5.83353L9.44235 9.1093L8.73524 9.8164L5.45947 6.54063Z" fill="#BDC2D1"/>
<rect x="8.48535" y="3.19263" width="1" height="4.67524" transform="rotate(-45 8.48535 3.19263)" fill="#BDC2D1"/>
</svg>