<svg width="16" height="16" viewBox="0 0 16 16" fill="none" xmlns="http://www.w3.org/2000/svg">
<path d="M9.28167 10.7612L9.08541 10.792L8.93802 10.9252L5.27102 14.2389L5.27085 14.2391C5.22947 14.2765 5.16623 14.3106 5.08522 14.3256C5.0042 14.3406 4.92041 14.3335 4.84763 14.3076C4.77498 14.2818 4.72649 14.2424 4.69927 14.207C4.67315 14.173 4.66667 14.1439 4.66667 14.1234C4.66667 14.1234 4.66667 14.1234 4.66667 14.1234V10.573V10.1511L4.28542 9.9705C4.25179 9.95457 4.21873 9.93791 4.18626 9.92054C2.59488 9.04337 1.66667 7.69135 1.66667 6.25988C1.66667 5.06361 2.31033 3.93034 3.45072 3.07346C4.59137 2.2164 6.19757 1.66667 8 1.66667C9.80243 1.66667 11.4086 2.2164 12.5493 3.07346C13.6897 3.93034 14.3333 5.06361 14.3333 6.25988C14.3333 8.21605 12.5658 10.054 9.83057 10.6565L9.82786 10.6572C9.64739 10.6977 9.46521 10.7324 9.28167 10.7612Z" stroke="#BDC2D1" stroke-width="1.33333"/>
</svg>
