<svg width="16" height="16" viewBox="0 0 16 16" fill="none" xmlns="http://www.w3.org/2000/svg">
<path d="M8.20033 8.14669C8.55604 7.83878 8.84136 7.45795 9.03691 7.03004C9.23246 6.60213 9.33366 6.13716 9.33366 5.66669C9.33366 4.78264 8.98247 3.93479 8.35735 3.30967C7.73223 2.68455 6.88438 2.33336 6.00033 2.33336C5.11627 2.33336 4.26842 2.68455 3.6433 3.30967C3.01818 3.93479 2.66699 4.78264 2.66699 5.66669C2.66699 6.13716 2.76819 6.60213 2.96374 7.03004C3.15929 7.45795 3.44461 7.83878 3.80033 8.14669C2.86709 8.56928 2.0753 9.25171 1.51965 10.1124C0.963989 10.9731 0.667973 11.9756 0.666992 13C0.666992 13.1768 0.73723 13.3464 0.862254 13.4714C0.987279 13.5965 1.15685 13.6667 1.33366 13.6667C1.51047 13.6667 1.68004 13.5965 1.80506 13.4714C1.93009 13.3464 2.00033 13.1768 2.00033 13C2.00033 11.9392 2.42175 10.9217 3.1719 10.1716C3.92204 9.42145 4.93946 9.00003 6.00033 9.00003C7.06119 9.00003 8.07861 9.42145 8.82875 10.1716C9.5789 10.9217 10.0003 11.9392 10.0003 13C10.0003 13.1768 10.0706 13.3464 10.1956 13.4714C10.3206 13.5965 10.4902 13.6667 10.667 13.6667C10.8438 13.6667 11.0134 13.5965 11.1384 13.4714C11.2634 13.3464 11.3337 13.1768 11.3337 13C11.3327 11.9756 11.0367 10.9731 10.481 10.1124C9.92535 9.25171 9.13357 8.56928 8.20033 8.14669ZM6.00033 7.66669C5.60476 7.66669 5.21808 7.54939 4.88918 7.32963C4.56029 7.10987 4.30394 6.79751 4.15257 6.43206C4.00119 6.06661 3.96158 5.66447 4.03876 5.27651C4.11593 4.88855 4.30641 4.53218 4.58611 4.25248C4.86582 3.97277 5.22218 3.78229 5.61015 3.70512C5.99811 3.62795 6.40024 3.66756 6.76569 3.81893C7.13115 3.97031 7.4435 4.22665 7.66326 4.55555C7.88303 4.88445 8.00033 5.27113 8.00033 5.66669C8.00033 6.19713 7.78961 6.70583 7.41454 7.08091C7.03947 7.45598 6.53076 7.66669 6.00033 7.66669ZM12.4937 7.88003C12.9203 7.39958 13.199 6.80606 13.2962 6.17092C13.3934 5.53577 13.3049 4.88607 13.0415 4.30003C12.7781 3.71398 12.3509 3.21656 11.8113 2.86764C11.2718 2.51873 10.6429 2.33319 10.0003 2.33336C9.82351 2.33336 9.65395 2.4036 9.52892 2.52862C9.4039 2.65365 9.33366 2.82321 9.33366 3.00003C9.33366 3.17684 9.4039 3.34641 9.52892 3.47143C9.65395 3.59645 9.82351 3.66669 10.0003 3.66669C10.5308 3.66669 11.0395 3.87741 11.4145 4.25248C11.7896 4.62755 12.0003 5.13626 12.0003 5.66669C11.9994 6.01685 11.9065 6.36063 11.731 6.66364C11.5555 6.96665 11.3036 7.21828 11.0003 7.39336C10.9015 7.45037 10.8189 7.5318 10.7606 7.62985C10.7022 7.7279 10.67 7.83929 10.667 7.95336C10.6642 8.06653 10.6903 8.17856 10.7428 8.27886C10.7953 8.37917 10.8724 8.46446 10.967 8.52669L11.227 8.70003L11.3137 8.74669C12.1173 9.12784 12.7952 9.73069 13.2676 10.4842C13.7401 11.2378 13.9874 12.1106 13.9803 13C13.9803 13.1768 14.0506 13.3464 14.1756 13.4714C14.3006 13.5965 14.4702 13.6667 14.647 13.6667C14.8238 13.6667 14.9934 13.5965 15.1184 13.4714C15.2434 13.3464 15.3137 13.1768 15.3137 13C15.3191 11.977 15.0629 10.9695 14.5693 10.0734C14.0757 9.17727 13.3612 8.42223 12.4937 7.88003Z" fill="#BDC2D1"/>
</svg>
